<svg width="512" height="512" viewBox="0 0 512 512" fill="none" xmlns="http://www.w3.org/2000/svg">
<g clip-path="url(#clip0_801_3)">
<path d="M278.253 254.812C278.253 266.133 269.075 275.312 257.753 275.312C246.431 275.312 237.253 266.133 237.253 254.812C237.253 243.49 246.431 234.312 257.753 234.312C269.075 234.312 278.253 243.49 278.253 254.812Z" fill="#1E90FF"/>
<path d="M75.2532 303.312C75.2532 316.014 64.7319 326.312 51.7532 326.312C38.7745 326.312 28.2532 316.014 28.2532 303.312C28.2532 290.609 38.7745 280.312 51.7532 280.312C64.7319 280.312 75.2532 290.609 75.2532 303.312Z" fill="#1E90FF"/>
<path d="M75.2532 214.312C75.2532 227.014 64.7319 237.312 51.7532 237.312C38.7745 237.312 28.2532 227.014 28.2532 214.312C28.2532 201.609 38.7745 191.312 51.7532 191.312C64.7319 191.312 75.2532 201.609 75.2532 214.312Z" fill="#1E90FF"/>
<path d="M116.253 382.312C116.253 395.014 105.732 405.312 92.7532 405.312C79.7745 405.312 69.2532 395.014 69.2532 382.312C69.2532 369.609 79.7745 359.312 92.7532 359.312C105.732 359.312 116.253 369.609 116.253 382.312Z" fill="#1E90FF"/>
<path d="M116.253 130.812C116.253 143.79 105.732 154.312 92.7532 154.312C79.7745 154.312 69.2532 143.79 69.2532 130.812C69.2532 117.833 79.7745 107.312 92.7532 107.312C105.732 107.312 116.253 117.833 116.253 130.812Z" fill="#1E90FF"/>
<path fill-rule="evenodd" clip-rule="evenodd" d="M257.753 177.004C214.781 177.004 179.945 211.84 179.945 254.812C179.945 297.784 214.781 332.619 257.753 332.619C300.725 332.619 335.561 297.784 335.561 254.812C335.561 211.84 300.725 177.004 257.753 177.004ZM113.253 254.812C113.253 175.006 177.948 110.312 257.753 110.312C337.558 110.312 402.253 175.006 402.253 254.812C402.253 334.617 337.558 399.312 257.753 399.312C177.948 399.312 113.253 334.617 113.253 254.812Z" fill="#1E90FF"/>
<path fill-rule="evenodd" clip-rule="evenodd" d="M157.556 432.945C162.534 421.218 176.077 415.746 187.805 420.724C215.029 432.28 244.683 436.944 274.14 434.302C303.597 431.66 331.948 421.794 356.681 405.578C381.415 389.362 401.767 367.297 415.936 341.336C430.105 315.376 437.652 286.322 437.91 256.748C438.168 227.174 431.129 197.992 417.415 171.788C403.702 145.585 383.738 123.167 359.291 106.522C334.844 89.8771 306.67 79.518 277.264 76.3623C247.857 73.2067 218.126 77.3521 190.704 88.4312C178.892 93.2038 165.447 87.4967 160.674 75.684C155.901 63.8712 161.608 50.4261 173.421 45.6534C207.878 31.7321 245.236 26.5233 282.186 30.4885C319.137 34.4537 354.539 47.4704 385.257 68.3857C415.975 89.301 441.061 117.469 458.293 150.395C475.525 183.321 484.37 219.989 484.046 257.15C483.722 294.311 474.238 330.819 456.434 363.44C438.63 396.06 413.056 423.786 381.978 444.162C350.899 464.538 315.275 476.935 278.261 480.255C241.247 483.574 203.986 477.714 169.777 463.194C158.05 458.216 152.578 444.673 157.556 432.945Z" fill="#1E90FF"/>
</g>
<defs>
<clipPath id="clip0_801_3">
<rect width="512" height="512" fill="white"/>
</clipPath>
</defs>
</svg>
